<?xml version="1.0" standalone="no"?>
<!DOCTYPE svg PUBLIC "-//W3C//DTD SVG 20010904//EN"
 "http://www.w3.org/TR/2001/REC-SVG-20010904/DTD/svg10.dtd">
<svg version="1.0" xmlns="http://www.w3.org/2000/svg"
 width="500.000000pt" height="500.000000pt" viewBox="0 0 500.000000 500.000000"
 preserveAspectRatio="xMidYMid meet">
<metadata>
Created by potrace 1.14, written by Peter Selinger 2001-2017
</metadata>
<g transform="translate(0.000000,500.000000) scale(0.100000,-0.100000)"
fill="#000000" stroke="none">
<path d="M2568 3493 c-99 -93 -159 -187 -184 -288 -6 -24 -8 -26 -12 -10 -8
41 -22 39 -23 -3 -2 -52 -1 -50 -22 -92 -28 -56 -92 -121 -193 -197 -16 -12
-65 -49 -110 -82 -104 -77 -185 -165 -220 -238 -98 -209 28 -450 305 -580 40
-19 78 -36 85 -38 6 -1 18 -5 26 -8 84 -34 251 -45 356 -23 361 76 522 362
377 671 -29 62 -63 111 -161 232 -50 61 -95 121 -101 132 -6 11 -17 26 -23 33
-32 34 -88 148 -100 198 -6 27 -6 23 -3 -20 6 -85 45 -159 181 -340 89 -119
148 -210 140 -218 -4 -3 -12 0 -18 6 -16 16 -25 15 -32 -4 -6 -15 -4 -15 10
-3 16 13 16 12 5 -8 -10 -20 -9 -22 5 -16 14 5 15 3 6 -12 -7 -14 -6 -25 5
-41 8 -13 12 -28 8 -34 -3 -5 -2 -10 3 -10 5 0 9 -7 9 -15 0 -8 -5 -15 -11
-15 -6 0 -6 -4 2 -8 7 -5 15 -41 18 -88 4 -43 10 -86 15 -95 11 -22 -11 -65
-61 -120 -37 -41 -41 -43 -54 -26 -12 16 -10 25 17 74 23 43 31 73 35 127 8
136 -41 260 -199 498 -216 327 -225 436 -53 661 20 26 33 47 30 47 -4 0 -30
-21 -58 -47z m-164 -469 c5 -20 31 -84 64 -152 23 -48 10 -57 -23 -16 -85 107
-122 -206 -40 -336 20 -32 31 -40 55 -40 17 0 30 -3 29 -7 0 -13 -54 -51 -114
-83 l-57 -30 -19 24 c-32 41 -51 98 -51 151 0 50 23 125 97 314 20 52 39 119
42 148 6 54 11 61 17 27z m-111 -26 c-5 -7 -31 -43 -57 -81 -26 -37 -52 -65
-57 -62 -7 5 108 155 120 155 2 0 -1 -6 -6 -12z m-297 -695 c10 -21 29 -51 42
-67 21 -27 22 -31 8 -42 -9 -6 -16 -17 -16 -25 0 -22 -60 51 -81 99 -22 51
-24 64 -4 39 13 -18 14 -18 24 1 6 11 7 22 4 26 -3 3 -4 6 0 6 3 0 14 -17 23
-37z"/>
<path d="M2535 1781 c-24 -5 -30 -12 -32 -34 -2 -31 -38 -151 -54 -179 -14
-28 -12 -29 44 -26 37 2 51 7 49 16 -1 8 10 56 25 108 23 82 25 96 12 108 -8
7 -26 10 -44 7z"/>
<path d="M2670 1780 c-16 -4 -24 -12 -22 -23 4 -21 -49 -191 -60 -195 -4 -2
-8 -8 -8 -13 0 -5 25 -9 56 -9 44 0 55 3 51 14 -3 8 7 54 22 102 15 49 25 96
23 105 -4 20 -28 28 -62 19z"/>
<path d="M1970 1758 c0 -2 11 -25 25 -52 29 -57 31 -89 10 -130 -8 -15 -15
-30 -15 -32 0 -2 27 -4 60 -4 57 0 60 1 50 19 -19 37 42 144 78 134 28 -7 55
23 42 48 -6 10 -20 19 -30 19 -19 0 -29 -9 -79 -70 l-20 -25 -2 30 c-1 17 -2
38 -1 48 2 14 -7 17 -58 17 -33 0 -60 -1 -60 -2z"/>
<path d="M2282 1704 c-34 -14 -37 -20 -23 -43 11 -18 61 -6 61 14 0 8 5 15 10
15 11 0 13 -20 5 -42 -4 -9 -18 -12 -46 -10 -46 5 -79 -17 -79 -53 0 -41 46
-59 90 -35 13 7 21 7 25 0 10 -16 61 -12 76 7 11 12 11 17 2 20 -9 3 -9 12 -2
29 22 60 2 98 -57 107 -17 3 -45 -1 -62 -9z m31 -109 c-3 -8 -9 -15 -14 -15
-10 0 -12 24 -3 33 11 11 24 -3 17 -18z"/>
<path d="M2825 1712 c-43 -9 -60 -44 -29 -56 23 -9 54 2 54 20 0 8 5 14 10 14
11 0 12 -6 4 -35 -4 -17 -12 -20 -48 -17 -67 6 -100 -38 -63 -85 12 -16 59
-17 75 -1 9 9 15 9 24 0 17 -17 54 -15 72 4 19 18 21 39 4 28 -8 -5 -9 -2 -4
12 17 45 17 70 -1 92 -18 22 -59 32 -98 24z m19 -117 c-4 -8 -10 -15 -15 -15
-5 0 -9 7 -9 15 0 8 7 15 15 15 9 0 12 -6 9 -15z"/>
<path d="M2994 1602 c-17 -11 -22 -35 -11 -56 7 -15 5 -22 -9 -33 -26 -19 -7
-30 24 -12 38 21 55 58 38 83 -15 23 -27 28 -42 18z"/>
<path d="M1609 1397 c-6 -93 -5 -97 22 -97 46 0 74 60 42 91 -14 14 -63 18
-64 6z m48 -18 c14 -14 4 -59 -13 -59 -9 0 -14 12 -14 35 0 36 8 43 27 24z"/>
<path d="M2220 1401 c-19 -8 -22 -101 -2 -101 6 0 12 9 12 20 0 11 4 20 9 20
5 0 13 -9 16 -20 3 -11 13 -20 21 -20 12 0 12 4 4 20 -7 14 -7 26 -1 39 16 29
-23 57 -59 42z m38 -29 c2 -7 -3 -12 -12 -12 -9 0 -16 7 -16 16 0 17 22 14 28
-4z"/>
<path d="M2618 1405 c-7 -23 -2 -105 6 -105 6 0 11 24 12 55 0 30 -3 55 -8 55
-4 0 -9 -2 -10 -5z"/>
<path d="M2926 1401 c-4 -5 -5 -30 -4 -55 1 -45 2 -46 35 -46 18 0 33 5 33 10
0 6 -3 9 -7 9 -32 -5 -40 3 -39 42 1 40 -7 58 -18 40z"/>
<path d="M3128 1404 c-5 -4 -8 -29 -8 -56 0 -46 1 -48 29 -48 17 0 33 5 36 10
3 6 -5 10 -19 10 -23 0 -25 4 -28 46 -2 25 -6 42 -10 38z"/>
<path d="M3331 1401 c-20 -13 -25 -75 -8 -90 22 -18 61 -10 66 14 3 17 1 18
-13 6 -35 -29 -61 19 -27 52 11 9 14 9 18 0 3 -7 9 -13 14 -13 11 0 12 30 2
31 -5 0 -15 2 -24 4 -9 1 -22 0 -28 -4z"/>
<path d="M1823 1361 c-16 -26 2 -61 32 -61 14 0 25 5 25 11 0 6 -7 9 -15 6 -8
-4 -17 -2 -20 3 -4 6 5 10 19 10 28 0 31 6 16 30 -13 20 -45 21 -57 1z m37
-11 c0 -5 -2 -10 -4 -10 -3 0 -8 5 -11 10 -3 6 -1 10 4 10 6 0 11 -4 11 -10z"/>
<path d="M2014 1363 c2 -10 7 -28 11 -40 3 -13 12 -23 20 -23 7 0 15 10 18 23
2 12 8 30 12 40 11 25 -10 21 -23 -5 l-11 -23 -7 23 c-7 26 -28 31 -20 5z"/>
<path d="M2418 1355 c-13 -29 3 -55 33 -55 30 0 31 18 2 23 l-28 4 28 2 c28 1
32 8 21 35 -9 24 -43 19 -56 -9z m42 1 c0 -3 -4 -8 -10 -11 -5 -3 -10 -1 -10
4 0 6 5 11 10 11 6 0 10 -2 10 -4z"/>
</g>
</svg>
